<svg width="403" height="140" viewBox="0 0 403 140" fill="none" xmlns="http://www.w3.org/2000/svg">
<path d="M89.3025 59.6535C88.8525 59.1036 88.3713 58.5739 87.8588 58.0646C85.7301 55.9358 83.2028 54.2471 80.4215 53.095C77.6401 51.9429 74.659 51.3499 71.6484 51.3499C68.6379 51.3499 65.6568 51.9429 62.8754 53.095C60.094 54.2471 57.5668 55.9358 55.438 58.0646C55.438 58.0646 47.6902 65.7233 47.6902 65.6999C47.6902 65.6765 39.9565 58.0646 39.9565 58.0646C37.8277 55.9358 35.3005 54.2471 32.5191 53.095C29.7377 51.9429 26.7567 51.3499 23.7461 51.3499C20.7355 51.3499 17.7545 51.9429 14.9731 53.095C12.1917 54.2471 9.66446 55.9358 7.5357 58.0646C7.02011 58.5802 6.53734 59.1098 6.08269 59.6629C2.44427 64.0593 0.576791 69.6549 0.845513 75.3553C1.11423 81.0557 3.49982 86.4508 7.5357 90.4854L26.5326 109.403L44.8498 127.64C45.3323 128.124 45.9276 128.481 46.5821 128.678C47.2366 128.876 47.9299 128.907 48.5995 128.77C49.4047 128.612 50.1443 128.217 50.7228 127.635L68.8713 109.487L87.8729 90.4854C91.908 86.4473 94.2909 81.0487 94.5553 75.3462C94.8197 69.6437 92.9466 64.0477 89.3025 59.6535Z" fill="#FEFEFE"/>
<path d="M68.8572 109.487L50.7087 127.636C50.1302 128.217 49.3906 128.612 48.5854 128.77C48.637 128.301 48.7073 127.832 48.7776 127.336C48.9464 126.239 49.1245 125.147 49.3307 124.055C49.5463 122.827 49.7994 121.598 50.0666 120.375C50.1556 119.953 50.2494 119.517 50.3572 119.096C50.465 118.674 50.5165 118.397 50.6009 118.041C50.7556 117.422 50.9149 116.799 51.0696 116.166C51.2571 115.468 51.454 114.76 51.6508 114.071C51.6508 114.071 51.6508 114.038 51.6508 114.029C51.7071 113.827 51.7633 113.63 51.8242 113.434C51.833 113.399 51.844 113.364 51.8571 113.33C51.9367 113.059 52.0164 112.791 52.1008 112.52C52.157 112.323 52.2227 112.121 52.2883 111.924C52.3539 111.727 52.382 111.601 52.4336 111.456C52.6023 110.931 52.7664 110.406 52.9492 109.885C53.0101 109.689 53.071 109.501 53.146 109.304C53.2819 108.868 53.4413 108.437 53.6147 108.006C53.7881 107.575 53.8819 107.251 54.0178 106.876C54.0881 106.698 54.1491 106.506 54.2241 106.323C54.4022 105.854 54.5709 105.386 54.7631 104.917C54.9974 104.303 55.2318 103.698 55.4896 103.094C57.3432 98.6107 59.5174 94.267 61.9953 90.0964C62.464 91.1697 62.9327 92.2524 63.4014 93.3399C65.5787 98.5943 67.4014 103.989 68.8572 109.487V109.487Z" fill="#C0C0C0"/>
<path d="M87.8591 90.4852L68.8575 109.487C67.3987 103.988 65.5728 98.5939 63.3923 93.3397C62.9236 92.2523 62.4549 91.1695 61.9862 90.0962C66.4234 82.5768 71.7919 75.6476 77.9646 69.4729C78.4333 69.0042 78.9301 68.5355 79.4176 68.0667C79.7082 67.7855 79.9988 67.509 80.2941 67.2371C80.9503 66.6137 81.6065 65.9997 82.2814 65.4138C82.5298 65.1935 82.7501 64.9732 83.0126 64.7764L83.8375 64.0593L84.5453 63.4593L85.3093 62.8219C85.8999 62.3297 86.4951 61.8516 87.0951 61.3735L88.0325 60.6283L89.2699 59.6909C92.9058 64.0803 94.7758 69.6669 94.5149 75.3607C94.254 81.0544 91.8811 86.4467 87.8591 90.4852V90.4852Z" fill="#E5E5E5"/>
<path d="M62.0002 90.0962C59.5214 94.268 57.3472 98.6133 55.4945 103.098C55.246 103.698 54.9976 104.303 54.768 104.917C54.5758 105.386 54.4071 105.854 54.2289 106.323C54.1539 106.506 54.093 106.698 54.0274 106.876C53.8868 107.251 53.7462 107.631 53.6196 108.01C53.4931 108.39 53.3009 108.868 53.1509 109.304C53.0759 109.501 53.015 109.688 52.954 109.885C52.7713 110.406 52.6072 110.93 52.4385 111.455C52.3869 111.619 52.3307 111.779 52.2932 111.924C52.2557 112.069 52.1619 112.323 52.1057 112.519C52.0213 112.791 51.9416 113.058 51.8619 113.33C51.8489 113.364 51.8379 113.398 51.8291 113.433C51.7682 113.63 51.712 113.827 51.6557 114.029C51.6557 114.029 51.6557 114.057 51.6557 114.071C51.4589 114.769 51.262 115.477 51.0745 116.166C50.9152 116.785 50.7558 117.408 50.6058 118.041C50.5214 118.397 50.4418 118.739 50.3621 119.095C50.2824 119.452 50.1605 119.953 50.0715 120.375C49.7996 121.598 49.5512 122.826 49.3356 124.054C49.1294 125.146 48.9512 126.239 48.7825 127.335C48.7122 127.804 48.6419 128.273 48.5903 128.77C48.0011 128.886 47.3938 128.874 46.8092 128.737L46.753 128.301C46.7061 127.992 46.6639 127.678 46.6171 127.364C46.5233 126.703 46.4202 126.051 46.303 125.395C46.2374 125.025 46.1765 124.645 46.1062 124.27C46.0124 123.722 45.9093 123.169 45.7921 122.615C45.675 122.062 45.5859 121.58 45.4781 121.064C45.4359 120.848 45.389 120.628 45.3328 120.417C45.2391 119.948 45.1359 119.522 45.0281 119.077C44.9531 118.72 44.8735 118.378 44.7844 118.022C44.625 117.403 44.4704 116.78 44.3157 116.147C43.9876 114.897 43.6345 113.666 43.2564 112.454C43.2564 112.369 43.2095 112.276 43.1814 112.187C43.0783 111.849 42.9752 111.521 42.8627 111.184C42.6939 110.649 42.5205 110.115 42.3377 109.59C42.1315 108.967 41.9206 108.353 41.6956 107.739C41.6393 107.56 41.5784 107.392 41.5034 107.214C41.2737 106.548 41.0347 105.887 40.7582 105.226C40.4816 104.565 40.1957 103.787 39.8957 103.08C38.043 98.5945 35.8688 94.2492 33.39 90.0775C33.8587 88.9994 34.3743 87.9214 34.8852 86.8621C35.0164 86.595 35.1477 86.3184 35.2789 86.0466C35.4102 85.7747 35.5414 85.5122 35.6773 85.2451C36.2023 84.1905 36.7413 83.1452 37.285 82.1094C37.4397 81.8328 37.585 81.5516 37.7537 81.2798C37.9225 81.0079 38.0584 80.7267 38.2224 80.4501C38.4568 80.0189 38.6911 79.5877 38.9396 79.1565C39.5489 78.0831 40.1676 77.0192 40.8144 75.9599C42.9424 72.4602 45.2281 69.0651 47.6717 65.7748L47.7373 65.681C47.7658 65.7252 47.7971 65.7675 47.831 65.8076C50.5669 69.4935 53.1077 73.3203 55.4429 77.2723C55.7804 77.8441 56.1132 78.4159 56.4413 78.9971C56.7694 79.5783 57.0928 80.1642 57.4068 80.7454C57.8333 81.5188 58.2505 82.3062 58.663 83.089C58.9067 83.5577 59.1317 84.0264 59.3707 84.4717C59.6098 84.917 59.8394 85.4091 60.0644 85.8778C60.2894 86.3465 60.5331 86.8152 60.7393 87.284C61.1424 88.2167 61.5783 89.1494 62.0002 90.0962Z" fill="#FCFCFC"/>
<path d="M26.5327 109.487L44.6859 127.636C45.2645 128.217 46.004 128.612 46.8092 128.77V128.77C46.7529 128.301 46.6873 127.832 46.617 127.336C46.4483 126.239 46.2702 125.147 46.0639 124.055C45.8452 122.827 45.5999 121.6 45.3281 120.375C45.239 119.953 45.1453 119.517 45.0328 119.096C44.9203 118.674 44.8781 118.397 44.7937 118.041C44.6344 117.422 44.475 116.799 44.325 116.166C44.1375 115.468 43.9407 114.76 43.7438 114.071C43.7425 114.057 43.7425 114.043 43.7438 114.029C43.6829 113.827 43.6313 113.63 43.5704 113.434L43.5376 113.33C43.4579 113.059 43.3782 112.791 43.2938 112.52C43.2329 112.323 43.172 112.121 43.1064 111.924C43.0643 111.766 43.0143 111.609 42.9564 111.456C42.7923 110.931 42.6283 110.406 42.4455 109.885C42.3845 109.689 42.3236 109.501 42.2486 109.304C42.108 108.868 41.9533 108.437 41.7799 108.006C41.6065 107.575 41.5127 107.251 41.3721 106.876C41.3065 106.698 41.2456 106.506 41.1706 106.323C40.9925 105.854 40.8237 105.386 40.6316 104.917C40.3972 104.303 40.1629 103.698 39.9004 103.094C38.0468 98.6107 35.8726 94.2669 33.3947 90.0964C32.9259 91.1697 32.4572 92.2524 31.9885 93.3399C29.8134 98.5951 27.9907 103.989 26.5327 109.487V109.487Z" fill="#C0C0C0"/>
<path d="M7.53549 90.4853L26.5324 109.487C27.995 103.989 29.8223 98.5947 32.0023 93.3398C32.471 92.2523 32.9397 91.1696 33.4084 90.0963C28.9712 82.5769 23.6026 75.6477 17.43 69.473C16.9613 69.0042 16.4645 68.5355 15.977 68.0668C15.6864 67.7856 15.3958 67.5091 15.0958 67.2372C14.4115 66.581 13.7694 65.967 13.0944 65.3999C12.8507 65.1796 12.6257 64.9593 12.3679 64.7624L11.5383 64.0453C11.3086 63.8484 11.0696 63.6422 10.8305 63.4453C10.5915 63.2485 10.3243 63.0188 10.0665 62.8079C9.47596 62.3157 8.8807 61.8376 8.28075 61.3596C7.96671 61.1064 7.64798 60.8627 7.34332 60.6143L6.10124 59.6769C2.46439 64.0701 0.596081 69.6614 0.861303 75.3584C1.12652 81.0555 3.50622 86.449 7.53549 90.4853V90.4853Z" fill="#E5E5E5"/>
<path d="M47.6945 47.2888C53.0478 47.2888 57.3875 42.9491 57.3875 37.5959C57.3875 32.2426 53.0478 27.9029 47.6945 27.9029C42.3413 27.9029 38.0016 32.2426 38.0016 37.5959C38.0016 42.9491 42.3413 47.2888 47.6945 47.2888Z" fill="#E5E5E5"/>
<path d="M163.939 61.5507H158.724L143.17 94.0026L127.547 61.5507H122.355L117 105.296H122.651L126.652 71.9631L140.681 100.535H145.743L159.651 71.9631L163.717 105.296H169.368L163.939 61.5507Z" fill="white"/>
<path d="M203.114 90.3773C203.114 80.9801 196.827 75.0136 188.381 75.0136C179.934 75.0136 173.142 80.9801 173.142 90.3773C173.142 99.7745 179.938 105.931 188.395 105.931C194.111 105.931 199.442 103.265 202.048 98.124L197.203 96.2186C195.552 99.1996 192.187 100.725 188.566 100.725C183.466 100.725 179.679 98.124 178.854 92.8436H202.961C203.049 92.0277 203.114 91.2025 203.114 90.3773ZM178.923 88.0917C179.813 82.7604 183.364 80.2106 188.381 80.2106C193.267 80.2106 196.888 82.9922 197.583 88.0917H178.923Z" fill="white"/>
<path d="M231.509 59.4552V80.2801C229.539 76.7892 225.353 75.0136 220.902 75.0136C212.78 75.0136 206.113 81.0404 206.113 90.4422C206.113 99.844 212.845 105.931 220.972 105.931C225.223 105.931 229.539 104.026 231.509 100.6V105.296H237.031V59.4552H231.509ZM221.412 100.716C216.016 100.716 211.7 96.2743 211.7 90.368C211.7 84.4618 216.016 80.2059 221.412 80.2059C222.746 80.1984 224.069 80.4569 225.302 80.9664C226.535 81.4758 227.655 82.2259 228.595 83.1729C229.535 84.1199 230.277 85.2447 230.777 86.4817C231.278 87.7187 231.526 89.043 231.509 90.3773C231.509 96.7286 226.729 100.725 221.393 100.725L221.412 100.716Z" fill="white"/>
<path d="M282.704 103.979H278.124L263.961 60.3314C263.956 60.2475 263.934 60.1656 263.895 60.0909C263.857 60.0162 263.803 59.9505 263.737 59.898C263.672 59.8455 263.596 59.8075 263.515 59.7863C263.433 59.7651 263.348 59.7613 263.266 59.7751C262.802 59.7751 262.709 59.9837 262.501 60.3314L247.855 103.979H242.802C242.629 103.995 242.469 104.075 242.352 104.204C242.236 104.333 242.173 104.501 242.176 104.675C242.161 104.858 242.217 105.04 242.334 105.182C242.451 105.324 242.619 105.415 242.802 105.435C243.632 105.435 244.884 105.231 248.908 105.231H249.186C253.14 105.231 254.462 105.435 255.292 105.435C255.475 105.415 255.642 105.324 255.759 105.182C255.876 105.04 255.933 104.858 255.917 104.675C255.92 104.501 255.858 104.333 255.741 104.204C255.625 104.075 255.465 103.995 255.292 103.979H249.673L254.045 91.1422H268.88L273.052 103.979H268.819C268.732 103.982 268.646 104.002 268.566 104.038C268.487 104.075 268.416 104.127 268.357 104.192C268.298 104.258 268.254 104.334 268.226 104.417C268.198 104.5 268.187 104.587 268.194 104.675C268.194 105.161 268.472 105.435 268.819 105.435C269.584 105.435 270.901 105.231 274.846 105.231H276.58C279.473 105.231 280.933 105.333 281.833 105.393C282.153 105.416 282.403 105.43 282.621 105.435H282.686C282.707 105.44 282.729 105.44 282.751 105.435H282.788C282.947 105.389 283.086 105.29 283.181 105.154C283.276 105.018 283.322 104.854 283.312 104.689C283.319 104.516 283.26 104.346 283.147 104.215C283.035 104.083 282.876 103.999 282.704 103.979V103.979ZM254.601 89.3342L261.606 68.5186L268.337 89.3342H254.601Z" fill="white"/>
<path d="M299.454 74.2765C296.125 74.2765 292.723 77.2157 291.87 81.3881V75.6673C291.87 75.0461 291.559 74.7401 291.174 74.7401C290.4 74.7401 289.088 75.0507 287.303 75.0507C284.522 75.0507 282.51 74.8189 282.12 74.8189C281.731 74.8189 281.429 75.1295 281.429 75.6719C281.429 76.2143 281.735 76.5203 282.12 76.5203C282.584 76.5203 284.675 76.4461 286.918 76.4461V103.831H282.12C281.967 103.828 281.818 103.883 281.703 103.984C281.613 104.06 281.541 104.155 281.494 104.263C281.446 104.37 281.424 104.488 281.429 104.605C281.413 104.764 281.444 104.923 281.519 105.064C281.593 105.205 281.707 105.321 281.847 105.398V105.398C281.93 105.439 282.022 105.46 282.115 105.458C282.282 105.458 282.449 105.458 282.635 105.458H282.764H282.802C283.664 105.398 285.008 105.259 288.462 105.259H290.242C294.651 105.259 295.736 105.491 296.663 105.491C296.867 105.467 297.055 105.365 297.184 105.206C297.314 105.046 297.377 104.842 297.359 104.638C297.362 104.445 297.292 104.258 297.163 104.114C297.034 103.97 296.855 103.881 296.663 103.863H291.87V88.8196C291.87 79.6913 296.125 75.2779 299.454 76.3627C299.107 76.6566 298.829 77.0242 298.641 77.4387C298.454 77.8533 298.361 78.3045 298.369 78.7595C298.372 79.5801 298.699 80.3664 299.279 80.9466C299.859 81.5268 300.646 81.8539 301.466 81.8563C303.32 81.8563 304.558 80.3079 304.558 78.3005C304.558 76.1309 302.625 74.2765 299.454 74.2765Z" fill="white"/>
<path d="M324.229 74.2765C320.9 74.2765 317.497 77.2157 316.644 81.3881V75.6673C316.644 75.0461 316.334 74.7401 315.949 74.7401C315.175 74.7401 313.858 75.0507 312.078 75.0507C309.296 75.0507 307.284 74.8189 306.895 74.8189C306.505 74.8189 306.204 75.1295 306.204 75.6719C306.204 76.2143 306.51 76.5203 306.895 76.5203C307.358 76.5203 309.449 76.4461 311.693 76.4461V103.831H306.876C306.779 103.834 306.684 103.856 306.596 103.897C306.508 103.938 306.429 103.997 306.364 104.069C306.3 104.142 306.25 104.227 306.22 104.319C306.189 104.411 306.177 104.508 306.186 104.605C306.186 105.148 306.492 105.458 306.876 105.458C307.804 105.458 308.731 105.226 313.223 105.226H315.003C319.412 105.226 320.497 105.458 321.424 105.458C321.628 105.435 321.815 105.333 321.945 105.173C322.075 105.014 322.138 104.81 322.119 104.605C322.123 104.412 322.053 104.225 321.924 104.082C321.795 103.938 321.616 103.848 321.424 103.831H316.626V88.8196C316.626 79.6913 320.882 75.2779 324.21 76.3627C323.863 76.6566 323.585 77.0242 323.398 77.4388C323.21 77.8533 323.117 78.3045 323.125 78.7595C323.128 79.5793 323.454 80.3649 324.034 80.945C324.613 81.5251 325.398 81.8527 326.218 81.8563C328.072 81.8563 329.315 80.3079 329.315 78.3005C329.328 76.1309 327.381 74.2765 324.229 74.2765Z" fill="white"/>
<path d="M346.18 103.826H341.382V75.6673C341.382 75.046 341.072 74.7401 340.687 74.7401C339.913 74.7401 338.596 75.0507 336.816 75.0507C334.034 75.0507 332.022 74.8189 331.633 74.8189C331.243 74.8189 330.942 75.1295 330.942 75.6719C330.942 76.2143 331.248 76.5203 331.633 76.5203C332.096 76.5203 334.187 76.4461 336.431 76.4461V103.831H331.647C331.549 103.834 331.454 103.856 331.366 103.897C331.278 103.938 331.199 103.997 331.134 104.069C331.07 104.142 331.021 104.227 330.99 104.319C330.959 104.411 330.948 104.508 330.956 104.605C330.956 105.148 331.262 105.458 331.647 105.458C332.574 105.458 333.501 105.226 337.993 105.226H339.773C344.182 105.226 345.267 105.458 346.194 105.458C346.399 105.435 346.586 105.333 346.716 105.173C346.845 105.014 346.908 104.81 346.89 104.605C346.894 104.409 346.822 104.219 346.69 104.074C346.559 103.929 346.376 103.841 346.18 103.826V103.826ZM338.907 59.6545C338.497 59.6318 338.087 59.6929 337.701 59.834C337.316 59.9752 336.963 60.1935 336.665 60.4755C336.367 60.7576 336.13 61.0975 335.967 61.4745C335.805 61.8514 335.721 62.2575 335.721 62.6679C335.721 63.0784 335.805 63.4845 335.967 63.8614C336.13 64.2384 336.367 64.5783 336.665 64.8603C336.963 65.1424 337.316 65.3607 337.701 65.5018C338.087 65.643 338.497 65.7041 338.907 65.6813C339.316 65.7041 339.726 65.643 340.112 65.5018C340.497 65.3607 340.85 65.1424 341.148 64.8603C341.446 64.5783 341.683 64.2384 341.846 63.8614C342.008 63.4845 342.092 63.0784 342.092 62.6679C342.092 62.2575 342.008 61.8514 341.846 61.4745C341.683 61.0975 341.446 60.7576 341.148 60.4755C340.85 60.1935 340.497 59.9752 340.112 59.834C339.726 59.6929 339.316 59.6318 338.907 59.6545V59.6545Z" fill="white"/>
<path d="M377.668 74.8235C376.741 74.8235 376.277 75.0553 372.022 75.0553H371.79C367.617 75.0553 367.154 74.8235 366.227 74.8235C365.842 74.8235 365.531 75.1342 365.531 75.6766C365.531 76.219 365.842 76.5249 366.227 76.5249C367.001 76.5249 367.696 76.4508 371.099 76.4508L363.125 98.1009L355.244 76.4415H355.633C357.335 76.4415 358.341 76.5157 359.268 76.5157C359.579 76.5157 359.885 76.2051 359.885 75.6673C359.885 75.1295 359.579 74.8143 359.268 74.8143C358.341 74.8143 357.256 75.0461 352.847 75.0461H352.615C348.128 75.0461 347.122 74.8143 346.273 74.8143C346.058 74.8301 345.858 74.9266 345.711 75.0844C345.565 75.2422 345.483 75.4496 345.483 75.665C345.483 75.8803 345.565 76.0877 345.711 76.2455C345.858 76.4033 346.058 76.4998 346.273 76.5157C347.047 76.5157 347.59 76.4415 349.829 76.4415H349.987L360.649 105.685C360.724 105.996 360.881 106.149 361.424 106.149C361.966 106.149 362.119 105.996 362.272 105.685L372.935 76.4415C376.106 76.4415 376.727 76.5157 377.654 76.5157C377.96 76.5157 378.271 76.2051 378.271 75.6673C378.271 75.1295 377.974 74.8235 377.668 74.8235Z" fill="white"/>
<path d="M401.265 96.5571C400.802 96.5571 400.486 97.0949 400.338 97.5631C398.947 101.814 396.467 104.137 392.295 104.137C387.033 104.137 384.089 99.6493 384.089 90.1362C384.089 89.0514 384.172 88.0454 384.172 87.0394H402.044C402.587 80.0854 398.716 74.2765 391.057 74.2765C384.631 74.2765 378.6 80.6927 378.6 90.1362C378.6 100.192 384.404 106.07 391.442 106.07C395.466 106.07 399.564 104.369 401.887 98.6525C402.008 98.2242 402.086 97.7846 402.118 97.3406C402.117 97.232 402.094 97.1247 402.05 97.0255C402.006 96.9263 401.942 96.8371 401.862 96.7637C401.782 96.6902 401.688 96.634 401.585 96.5984C401.482 96.5629 401.374 96.5488 401.265 96.5571V96.5571ZM391.748 75.8945C394.844 75.8945 397.473 78.3005 397.473 82.3199C397.471 83.3177 397.314 84.3091 397.009 85.2592H384.4C385.248 78.1429 388.206 75.8945 391.748 75.8945Z" fill="white"/>
<path d="M126.355 137.154C126.355 137.733 126.205 138.221 125.906 138.616C125.607 139.003 125.201 139.297 124.689 139.5C124.187 139.702 123.637 139.804 123.039 139.804H118.072V129.522H123.574C124.057 129.522 124.472 129.653 124.82 129.913C125.177 130.164 125.447 130.493 125.631 130.898C125.824 131.294 125.92 131.709 125.92 132.143C125.92 132.636 125.795 133.104 125.544 133.548C125.293 133.992 124.926 134.32 124.443 134.533C125.032 134.707 125.496 135.02 125.833 135.474C126.181 135.928 126.355 136.488 126.355 137.154ZM124.342 136.777C124.342 136.517 124.289 136.285 124.183 136.082C124.076 135.87 123.932 135.706 123.748 135.59C123.574 135.464 123.372 135.402 123.14 135.402H120.07V138.11H123.039C123.28 138.11 123.497 138.052 123.69 137.936C123.893 137.81 124.052 137.646 124.168 137.443C124.284 137.241 124.342 137.019 124.342 136.777ZM120.07 131.231V133.823H122.734C122.957 133.823 123.159 133.77 123.343 133.664C123.526 133.558 123.671 133.408 123.777 133.215C123.893 133.022 123.951 132.79 123.951 132.52C123.951 132.259 123.898 132.032 123.792 131.839C123.695 131.646 123.56 131.497 123.386 131.39C123.222 131.284 123.034 131.231 122.821 131.231H120.07ZM128.4 139.804V129.522H132.947C133.42 129.522 133.854 129.619 134.25 129.812C134.655 130.005 135.003 130.266 135.293 130.594C135.592 130.922 135.819 131.289 135.973 131.694C136.137 132.1 136.219 132.515 136.219 132.94C136.219 133.374 136.142 133.794 135.988 134.2C135.843 134.595 135.631 134.943 135.351 135.242C135.071 135.542 134.742 135.773 134.366 135.937L136.712 139.804H134.511L132.396 136.357H130.398V139.804H128.4ZM130.398 134.605H132.903C133.154 134.605 133.376 134.533 133.569 134.388C133.762 134.233 133.917 134.031 134.033 133.78C134.149 133.529 134.207 133.249 134.207 132.94C134.207 132.612 134.139 132.327 134.004 132.085C133.869 131.834 133.695 131.637 133.483 131.492C133.28 131.347 133.058 131.275 132.816 131.275H130.398V134.605ZM138.516 139.804V129.522H140.514V139.804H138.516ZM145.143 133.2V139.804H143.145V129.522H144.738L150.052 136.299V129.537H152.05V139.804H150.385L145.143 133.2ZM158.947 139.876C158.281 139.876 157.648 139.741 157.05 139.471C156.461 139.2 155.939 138.829 155.486 138.356C155.042 137.873 154.694 137.313 154.443 136.676C154.192 136.039 154.067 135.349 154.067 134.605C154.067 133.9 154.192 133.239 154.443 132.621C154.694 131.994 155.046 131.443 155.5 130.97C155.954 130.497 156.485 130.126 157.093 129.855C157.701 129.585 158.363 129.45 159.077 129.45C160.042 129.45 160.868 129.657 161.553 130.073C162.248 130.478 162.77 131.019 163.117 131.694L161.626 132.795C161.365 132.283 160.998 131.892 160.525 131.622C160.062 131.352 159.555 131.217 159.005 131.217C158.57 131.217 158.174 131.308 157.817 131.492C157.46 131.675 157.151 131.926 156.89 132.245C156.63 132.563 156.427 132.93 156.282 133.345C156.147 133.76 156.079 134.2 156.079 134.663C156.079 135.155 156.152 135.609 156.297 136.024C156.451 136.439 156.663 136.801 156.934 137.11C157.214 137.419 157.537 137.665 157.904 137.849C158.271 138.023 158.676 138.11 159.12 138.11C159.642 138.11 160.139 137.974 160.612 137.704C161.095 137.434 161.544 137.038 161.959 136.517V138.486C161.099 139.413 160.095 139.876 158.947 139.876ZM161.814 135.981H159.743V134.518H163.465V139.804H161.814V135.981ZM165.653 139.804V129.522H167.652V139.804H165.653ZM172.281 133.2V139.804H170.282V129.522H171.875L177.19 136.299V129.537H179.188V139.804H177.523L172.281 133.2ZM186.084 139.876C185.418 139.876 184.786 139.741 184.187 139.471C183.598 139.2 183.077 138.829 182.623 138.356C182.179 137.873 181.832 137.313 181.581 136.676C181.33 136.039 181.204 135.349 181.204 134.605C181.204 133.9 181.33 133.239 181.581 132.621C181.832 131.994 182.184 131.443 182.638 130.97C183.092 130.497 183.623 130.126 184.231 129.855C184.839 129.585 185.5 129.45 186.215 129.45C187.18 129.45 188.005 129.657 188.691 130.073C189.386 130.478 189.907 131.019 190.255 131.694L188.763 132.795C188.503 132.283 188.136 131.892 187.663 131.622C187.199 131.352 186.693 131.217 186.142 131.217C185.708 131.217 185.312 131.308 184.955 131.492C184.598 131.675 184.289 131.926 184.028 132.245C183.767 132.563 183.565 132.93 183.42 133.345C183.285 133.76 183.217 134.2 183.217 134.663C183.217 135.155 183.29 135.609 183.434 136.024C183.589 136.439 183.801 136.801 184.071 137.11C184.351 137.419 184.675 137.665 185.042 137.849C185.409 138.023 185.814 138.11 186.258 138.11C186.779 138.11 187.277 137.974 187.75 137.704C188.232 137.434 188.681 137.038 189.096 136.517V138.486C188.237 139.413 187.233 139.876 186.084 139.876ZM188.952 135.981H186.881V134.518H190.602V139.804H188.952V135.981ZM205.401 129.522V139.804H203.417V135.416H198.754V139.804H196.755V129.522H198.754V133.678H203.417V129.522H205.401ZM212.39 139.876C211.569 139.876 210.869 139.741 210.29 139.471C209.72 139.191 209.257 138.809 208.9 138.327C208.552 137.844 208.296 137.299 208.132 136.69C207.968 136.073 207.886 135.431 207.886 134.764V129.522H209.885V134.764C209.885 135.189 209.923 135.604 210 136.01C210.087 136.406 210.227 136.763 210.42 137.081C210.613 137.4 210.869 137.651 211.188 137.834C211.506 138.018 211.902 138.11 212.375 138.11C212.858 138.11 213.259 138.018 213.577 137.834C213.905 137.641 214.161 137.386 214.345 137.067C214.538 136.748 214.678 136.391 214.765 135.995C214.852 135.59 214.895 135.18 214.895 134.764V129.522H216.879V134.764C216.879 135.469 216.792 136.13 216.618 136.748C216.454 137.366 216.189 137.912 215.822 138.385C215.465 138.848 215.001 139.215 214.432 139.485C213.862 139.746 213.181 139.876 212.39 139.876ZM227.762 139.804V133.056L225.126 138.081H224.011L221.376 133.056V139.804H219.377V129.522H221.52L224.561 135.373L227.631 129.522H229.76V139.804H227.762ZM235.187 129.522H237.214L240.994 139.804H238.938L237.982 137.241H234.391L233.449 139.804H231.393L235.187 129.522ZM237.62 135.836L236.201 131.593L234.724 135.836H237.62ZM244.606 133.2V139.804H242.607V129.522H244.2L249.515 136.299V129.537H251.513V139.804H249.848L244.606 133.2ZM254.137 139.804V129.522H256.136V139.804H254.137ZM266.456 131.275H263.168V139.804H261.185V131.275H257.897V129.522H266.456V131.275ZM269.376 129.522L271.91 134.359L274.488 129.522H276.646L272.909 136.213V139.804H270.926V136.184L267.204 129.522H269.376ZM288.955 131.275H285.668V139.804H283.684V131.275H280.397V129.522H288.955V131.275ZM294.864 139.876C294.111 139.876 293.426 139.731 292.808 139.442C292.2 139.152 291.674 138.761 291.229 138.269C290.795 137.767 290.457 137.207 290.216 136.589C289.974 135.962 289.854 135.32 289.854 134.663C289.854 133.978 289.979 133.326 290.23 132.708C290.491 132.081 290.843 131.526 291.287 131.043C291.741 130.55 292.272 130.164 292.88 129.884C293.498 129.595 294.174 129.45 294.908 129.45C295.651 129.45 296.327 129.6 296.935 129.899C297.553 130.198 298.079 130.599 298.513 131.101C298.948 131.603 299.286 132.163 299.527 132.781C299.768 133.398 299.889 134.036 299.889 134.692C299.889 135.368 299.764 136.019 299.513 136.647C299.262 137.265 298.909 137.82 298.455 138.312C298.011 138.795 297.48 139.176 296.863 139.456C296.254 139.736 295.588 139.876 294.864 139.876ZM291.881 134.663C291.881 135.107 291.949 135.537 292.084 135.952C292.219 136.367 292.412 136.739 292.663 137.067C292.924 137.386 293.237 137.641 293.604 137.834C293.981 138.018 294.406 138.11 294.879 138.11C295.361 138.11 295.791 138.013 296.167 137.82C296.544 137.617 296.858 137.352 297.109 137.023C297.36 136.686 297.548 136.314 297.673 135.908C297.809 135.493 297.876 135.078 297.876 134.663C297.876 134.219 297.804 133.794 297.659 133.389C297.524 132.974 297.326 132.607 297.065 132.288C296.814 131.96 296.501 131.704 296.124 131.521C295.757 131.328 295.342 131.231 294.879 131.231C294.386 131.231 293.952 131.332 293.575 131.535C293.208 131.728 292.9 131.989 292.649 132.317C292.398 132.645 292.204 133.012 292.069 133.418C291.944 133.823 291.881 134.238 291.881 134.663ZM314.517 129.522V139.804H312.533V135.416H307.87V139.804H305.872V129.522H307.87V133.678H312.533V129.522H314.517ZM324.287 138.052V139.804H317.147V129.522H324.156V131.275H319.146V133.751H323.476V135.373H319.146V138.052H324.287ZM329.125 129.522H331.152L334.932 139.804H332.875L331.92 137.241H328.328L327.387 139.804H325.331L329.125 129.522ZM331.558 135.836L330.139 131.593L328.662 135.836H331.558ZM336.545 139.804V129.522H338.543V138.052H343.786V139.804H336.545ZM351.692 131.275H348.405V139.804H346.421V131.275H343.133V129.522H351.692V131.275ZM362.099 129.522V139.804H360.115V135.416H355.452V139.804H353.454V129.522H355.452V133.678H360.115V129.522H362.099ZM364.107 134.591C364.107 133.963 364.218 133.35 364.44 132.752C364.671 132.143 365.004 131.593 365.439 131.101C365.873 130.599 366.404 130.203 367.032 129.913C367.659 129.614 368.374 129.464 369.175 129.464C370.121 129.464 370.937 129.672 371.622 130.087C372.317 130.502 372.834 131.043 373.172 131.709L371.637 132.766C371.463 132.38 371.236 132.076 370.956 131.854C370.676 131.622 370.377 131.463 370.058 131.376C369.74 131.279 369.426 131.231 369.117 131.231C368.615 131.231 368.176 131.332 367.799 131.535C367.432 131.738 367.123 132.003 366.872 132.332C366.621 132.66 366.433 133.027 366.308 133.432C366.192 133.838 366.134 134.243 366.134 134.649C366.134 135.102 366.206 135.542 366.351 135.966C366.496 136.381 366.699 136.753 366.959 137.081C367.23 137.4 367.548 137.656 367.915 137.849C368.292 138.032 368.702 138.124 369.146 138.124C369.464 138.124 369.788 138.071 370.116 137.965C370.444 137.859 370.748 137.69 371.028 137.458C371.308 137.226 371.526 136.927 371.68 136.56L373.316 137.501C373.114 138.013 372.781 138.447 372.317 138.805C371.863 139.162 371.352 139.432 370.782 139.616C370.213 139.799 369.648 139.891 369.088 139.891C368.354 139.891 367.683 139.741 367.075 139.442C366.467 139.133 365.941 138.727 365.497 138.225C365.062 137.714 364.72 137.144 364.469 136.517C364.227 135.879 364.107 135.237 364.107 134.591ZM377.796 129.522H379.823L383.602 139.804H381.546L380.59 137.241H376.999L376.058 139.804H374.002L377.796 129.522ZM380.228 135.836L378.809 131.593L377.332 135.836H380.228ZM385.216 139.804V129.522H389.763C390.236 129.522 390.67 129.619 391.066 129.812C391.471 130.005 391.819 130.266 392.109 130.594C392.408 130.922 392.635 131.289 392.789 131.694C392.953 132.1 393.035 132.515 393.035 132.94C393.035 133.374 392.958 133.794 392.804 134.2C392.659 134.595 392.446 134.943 392.167 135.242C391.887 135.542 391.558 135.773 391.182 135.937L393.528 139.804H391.327L389.212 136.357H387.214V139.804H385.216ZM387.214 134.605H389.719C389.97 134.605 390.192 134.533 390.385 134.388C390.578 134.233 390.733 134.031 390.849 133.78C390.965 133.529 391.023 133.249 391.023 132.94C391.023 132.612 390.955 132.327 390.82 132.085C390.685 131.834 390.511 131.637 390.298 131.492C390.096 131.347 389.874 131.275 389.632 131.275H387.214V134.605ZM402.471 138.052V139.804H395.332V129.522H402.34V131.275H397.33V133.751H401.66V135.373H397.33V138.052H402.471Z" fill="#EAEAEA"/>
</svg>
